Coordinates
version=1
nRows=8
nColumns=40
inDegrees=yes

Units are S.I. units (second, meters, Newtons, ...)
Angles are in degrees.

endheader
time	pelvis_tilt	pelvis_list	pelvis_rotation	pelvis_tx	pelvis_ty	pelvis_tz	hip_flexion_r	hip_adduction_r	hip_rotation_r	knee_angle_r	knee_angle_r_beta	ankle_angle_r	subtalar_angle_r	mtp_angle_r	hip_flexion_l	hip_adduction_l	hip_rotation_l	knee_angle_l	knee_angle_l_beta	ankle_angle_l	subtalar_angle_l	mtp_angle_l	lumbar_extension	lumbar_bending	lumbar_rotation	arm_flex_r	arm_add_r	arm_rot_r	elbow_flex_r	pro_sup_r	wrist_flex_r	wrist_dev_r	arm_flex_l	arm_add_l	arm_rot_l	elbow_flex_l	pro_sup_l	wrist_flex_l	wrist_dev_l
     58.39500000	     -0.49999982	     -6.16092719	      6.71911978	      1.11642735	      0.91570307	      0.53367739	     14.05568020	      6.34262780	    -12.40942037	     27.60955323	     27.60955323	     16.04370247	    -11.21799212	     -4.97942627	     36.20105539	    -13.01175941	      7.23860584	     57.87581854	     57.87581854	     10.25195414	    -18.77003283	     12.65814605	    -11.44710283	      5.25392856	      3.78732675	     38.08741189	    -19.94870936	     -0.18753424	     68.88139858	     44.96805583	      0.00000000	      0.00000000	    -11.51853489	     -9.01588316	      2.90444780	     21.74316942	     45.23851972	      0.00000000	      0.00000000
     58.41685714	     -0.39736688	     -6.04439739	      7.81667731	      1.11455663	      0.91407455	      0.53553414	     14.44172335	      6.28650167	    -12.81316645	     28.84082701	     28.84082701	     17.15735338	    -12.17619979	     -2.76628481	     37.52761311	    -12.45585048	      7.45411943	     55.53389605	     55.53389605	      9.09368289	    -18.75493913	     11.67138163	    -11.50713676	      5.27656907	      3.04036059	     42.26859859	    -19.49552512	      1.81180314	     68.34945880	     44.97373420	      0.00000000	      0.00000000	    -15.15224999	     -9.49009529	      5.13036592	     24.96146854	     44.70086698	      0.00000000	      0.00000000
     58.43871429	     -0.25618599	     -5.82957409	      8.86520522	      1.11289224	      0.91300734	      0.53694876	     14.47703050	      6.08390693	    -13.40891107	     29.51674643	     29.51674643	     17.47888914	    -12.91622940	     -2.70919809	     38.21032149	    -11.77717026	      7.51221182	     52.31212316	     52.31212316	      8.06242923	    -18.53146364	     11.77439441	    -11.62280796	      5.17831555	      3.59345841	     45.07464727	    -19.93437238	      1.33311989	     69.27952754	     44.97754957	      0.00000000	      0.00000000	    -16.49344514	     -9.51339495	      5.50623759	     24.72903955	     44.61802206	      0.00000000	      0.00000000
     58.46057143	     -0.17767684	     -5.66969902	      9.87843836	      1.11135437	      0.91209299	      0.53810775	     14.49450678	      5.92258002	    -14.03093102	     30.07861756	     30.07861756	     18.11513236	    -13.31698241	     -1.64746625	     38.35239418	    -11.31922582	      7.23087752	     48.13493047	     48.13493047	      5.22500957	    -18.23039779	      7.84690453	    -11.64445750	      5.14913702	      3.67860904	     48.14031329	    -19.80678938	      0.97607208	     69.58718519	     45.02370046	      0.00000000	      0.00000000	    -18.53604937	     -9.91440882	      7.84684102	     26.54127291	     44.21493952	      0.00000000	      0.00000000
     58.48242857	     -0.17985966	     -5.39413904	     10.82190647	      1.10990726	      0.91146706	      0.53879083	     14.45341278	      5.62561332	    -14.55436243	     30.42157791	     30.42157791	     18.34353408	    -13.85732379	     -1.60762979	     38.22750233	    -10.60156153	      7.08728082	     43.95530184	     43.95530184	      3.99243208	    -17.18939030	      8.50680553	    -11.56572702	      5.03555191	      4.16637564	     50.74700877	    -20.18599626	      0.64408593	     70.42326339	     45.02242449	      0.00000000	      0.00000000	    -19.44594344	     -9.83219619	      8.13421895	     26.42910133	     44.16142083	      0.00000000	      0.00000000
     58.50428571	     -0.32744580	     -5.27709801	     11.74090074	      1.10846673	      0.91088904	      0.53920772	     14.48961258	      5.45703685	    -15.17106547	     30.56664563	     30.56664563	     18.47985590	    -14.26909471	     -1.53891714	     38.06718640	    -10.08543545	      6.88010655	     39.83249275	     39.83249275	      2.69787875	    -15.51745342	      9.22738864	    -11.30764272	      5.05280652	      4.53699998	     53.23029179	    -20.51752261	      0.31448536	     71.21212570	     45.02060715	      0.00000000	      0.00000000	    -20.16640521	     -9.59737972	      8.32736898	     26.40823462	     44.12148354	      0.00000000	      0.00000000
     58.52614286	     -0.23158105	     -4.88720049	     12.49604708	      1.10740255	      0.91114671	      0.53939343	     14.14107132	      5.06281266	    -15.60606931	     30.73199099	     30.73199099	     19.06291078	    -14.29372286	     -0.51618467	     36.97508628	     -9.54062388	      6.26939487	     35.30169952	     35.30169952	     -0.41229227	    -14.33192209	      5.57200200	    -11.38515537	      4.77643587	      4.15977478	     55.85382286	    -19.50154837	     -0.23844919	     71.57382821	     45.07057725	      0.00000000	      0.00000000	    -22.05142342	    -10.00337424	     11.57478627	     29.11036716	     43.66137921	      0.00000000	      0.00000000
     58.54800000	     -0.34335888	     -4.64821818	     13.20295374	      1.10626346	      0.91154990	      0.53927068	     13.85442786	      4.81829125	    -16.02263469	     30.48124831	     30.48124831	     19.13745091	    -14.47010205	     -0.43122702	     36.34569156	     -9.06351488	      5.81634460	     31.83703953	     31.83703953	     -1.53913428	    -12.29647548	      6.50559811	    -11.19779411	      4.63989469	      4.41138462	     57.88182250	    -19.57816740	     -0.40198313	     72.39758445	     45.06080357	      0.00000000	      0.00000000	    -22.42505330	     -9.64306264	     11.94446021	     29.07156212	     43.61698957	      0.00000000	      0.00000000
